Coordinates
version=1
nRows=10
nColumns=40
inDegrees=yes

Units are S.I. units (second, meters, Newtons, ...)
Angles are in degrees.

endheader
time	pelvis_tilt	pelvis_list	pelvis_rotation	pelvis_tx	pelvis_ty	pelvis_tz	hip_flexion_r	hip_adduction_r	hip_rotation_r	knee_angle_r	knee_angle_r_beta	ankle_angle_r	subtalar_angle_r	mtp_angle_r	hip_flexion_l	hip_adduction_l	hip_rotation_l	knee_angle_l	knee_angle_l_beta	ankle_angle_l	subtalar_angle_l	mtp_angle_l	lumbar_extension	lumbar_bending	lumbar_rotation	arm_flex_r	arm_add_r	arm_rot_r	elbow_flex_r	pro_sup_r	wrist_flex_r	wrist_dev_r	arm_flex_l	arm_add_l	arm_rot_l	elbow_flex_l	pro_sup_l	wrist_flex_l	wrist_dev_l
     56.04000000	     -3.57240214	     -4.49150323	      2.56338544	      1.05060018	      0.92603050	      0.38931137	     14.48159536	     -7.10417737	     -5.98057412	     44.37403905	     44.37403905	      4.02776165	    -12.91533395	    -17.75709245	     18.88826747	     -2.96158419	     -0.69878316	     27.77340110	     27.77340110	     15.20951009	    -15.03556983	      5.25492860	     -8.50657641	      5.04345218	      4.43211464	     25.46719463	    -12.05366499	      4.43011821	     41.58156059	     38.32718820	      0.00000000	      0.00000000	      5.04599787	    -10.94840403	     21.71556895	     26.26078267	     35.48994216	      0.00000000	      0.00000000
     56.06200000	     -3.16954481	     -4.62478453	      1.87995561	      1.04918654	      0.92397477	      0.38620802	     16.71865590	     -7.06110800	     -4.51932254	     48.74178079	     48.74178079	      2.55252720	    -14.73793044	    -16.85572266	     18.89361790	     -3.00773548	     -0.96663846	     29.20073520	     29.20073520	     15.95179988	    -15.75362216	      4.97254360	     -8.81347159	      5.41484196	      4.31593811	     22.32472321	    -12.24837920	      4.60852001	     39.25916432	     38.56810561	      0.00000000	      0.00000000	      7.09562523	    -11.28324451	     21.24201313	     27.16240692	     35.82024473	      0.00000000	      0.00000000
     56.08400000	     -2.81035256	     -4.61299038	      1.17096060	      1.04770494	      0.92178891	      0.38303516	     18.92679980	     -7.16851293	     -3.20202656	     52.83031925	     52.83031925	      1.26688680	    -15.78451305	    -15.85173152	     18.86020632	     -2.88154262	     -1.30771930	     30.50000891	     30.50000891	     16.68547888	    -16.44721418	      4.81017920	     -9.09966254	      5.62165873	      4.04514803	     19.15167650	    -12.43784940	      4.80005016	     37.12483056	     38.71615012	      0.00000000	      0.00000000	      9.13654911	    -11.75077146	     20.83540703	     28.07443673	     36.02138833	      0.00000000	      0.00000000
     56.10600000	     -2.34055101	     -4.77182872	      0.50326882	      1.04628892	      0.92003009	      0.38017705	     20.92544315	     -6.83961869	     -1.84478828	     56.72335137	     56.72335137	      2.18435712	    -15.38214364	     -8.92241077	     18.71396740	     -2.95227747	     -1.57386990	     31.86932243	     31.86932243	     18.15702875	    -16.67517708	      6.29280921	     -9.47876954	      5.99533738	      3.76076942	     16.78883832	    -12.30771030	      4.42325413	     32.46236895	     39.43719178	      0.00000000	      0.00000000	     11.14544354	    -12.20139919	     19.56352696	     29.30366713	     36.92071862	      0.00000000	      0.00000000
     56.12800000	     -2.01709523	     -4.80042691	     -0.15172847	      1.04483194	      0.91833376	      0.37742010	     22.66898320	     -6.76849922	     -0.86104858	     59.48974835	     59.48974835	      1.30071265	    -15.80625932	     -8.24859341	     18.55384402	     -2.88424562	     -1.94634770	     32.85310607	     32.85310607	     18.78070514	    -17.15717876	      6.12903820	     -9.75441281	      6.19546938	      3.49563440	     13.56155986	    -12.60301946	      4.46493399	     30.66722056	     39.56322100	      0.00000000	      0.00000000	     13.20144229	    -12.81718625	     19.04772243	     30.34100814	     37.11116074	      0.00000000	      0.00000000
     56.15000000	     -1.63651108	     -4.98519775	     -0.78813630	      1.04352336	      0.91736681	      0.37515380	     24.03481035	     -6.41695248	     -0.04137805	     61.49118392	     61.49118392	      1.28341200	    -15.81196285	     -6.25401709	     18.16369750	     -3.02110484	     -2.32362258	     33.55474156	     33.55474156	     19.55666458	    -17.35386734	      6.37263844	    -10.11580702	      6.54132795	      3.74615295	     10.27423757	    -13.04888792	      4.26568273	     28.34083422	     39.80213314	      0.00000000	      0.00000000	     15.35875422	    -13.25317417	     18.12312014	     31.85752257	     37.44744323	      0.00000000	      0.00000000
     56.17200000	     -1.37692147	     -5.07133054	     -1.39245140	      1.04211213	      0.91686991	      0.37327972	     25.42655982	     -6.16478452	      0.61655241	     63.05040549	     63.05040549	      3.10565317	    -14.68187663	     -0.37084272	     17.80270954	     -3.05300851	     -2.71048574	     34.05234021	     34.05234021	     20.52262264	    -17.40235466	      7.67615862	    -10.33295809	      6.74047109	      3.02913557	      7.89505632	    -12.81366112	      2.30799623	     25.77298914	     40.68798622	      0.00000000	      0.00000000	     16.67630553	    -13.87766729	     14.84058347	     33.88223246	     38.70031633	      0.00000000	      0.00000000
     56.19400000	     -1.19119263	     -5.16786809	     -1.96447280	      1.04075142	      0.91700951	      0.37180693	     26.37698059	     -5.97188525	      0.95619584	     63.27167069	     63.27167069	      3.25006867	    -14.53712957	     -0.50387444	     17.26575349	     -3.11828283	     -3.13350406	     34.01811990	     34.01811990	     20.79066198	    -17.52469872	      7.63060449	    -10.45916337	      6.92157296	      2.41123016	      5.16772311	    -12.99909525	      2.25156796	     24.61675554	     40.76111745	      0.00000000	      0.00000000	     18.45591892	    -14.80341808	     14.31509029	     34.70865800	     38.83344107	      0.00000000	      0.00000000
     56.21600000	     -1.08335615	     -5.26383127	     -2.65055035	      1.03934378	      0.91777881	      0.37089589	     27.16781156	     -5.75930239	      1.20163697	     62.65808459	     62.65808459	      3.66874250	    -14.12638679	     -0.71460211	     16.61698828	     -3.24331050	     -3.73396662	     33.63993748	     33.63993748	     20.97624113	    -17.53522128	      7.65288312	    -10.57587163	      7.03275500	      2.94931160	      2.02105213	    -13.42325141	      1.99676794	     23.36444483	     40.90085121	      0.00000000	      0.00000000	     20.44674755	    -15.07441093	     13.23497965	     36.65585599	     39.09065961	      0.00000000	      0.00000000
     56.23800000	     -1.07708631	     -5.39870136	     -3.25982606	      1.03792077	      0.91904202	      0.37043720	     27.72718667	     -5.52052629	      1.19690453	     61.13269302	     61.13269302	      3.96686470	    -13.82962510	     -1.91156164	     15.94040621	     -3.42214539	     -4.30472627	     32.96326316	     32.96326316	     20.85461497	    -17.52657572	      7.34349044	    -10.62967082	      7.18364547	      2.43810413	     -0.96238309	    -13.46003452	     -0.08214018	     24.08130709	     41.49651945	      0.00000000	      0.00000000	     21.13811441	    -15.53153290	      8.80970855	     40.04349111	     40.16983131	      0.00000000	      0.00000000
